<svg width="21" height="22" viewBox="0 0 21 22" fill="none" xmlns="http://www.w3.org/2000/svg">
<g clip-path="url(#clip0_8530_32)">
<path d="M6.50587 0.449492C5.44187 0.502829 4.71527 0.683242 4.08007 0.948442C3.42268 1.22065 2.86548 1.58594 2.31108 2.17712C1.75668 2.76829 1.41528 3.36074 1.16088 4.06029C0.914677 4.73668 0.747877 5.50933 0.700877 6.64047C0.653877 7.77161 0.643477 8.13519 0.648677 11.0205C0.653877 13.9058 0.665877 14.2675 0.717477 15.401C0.768277 16.5313 0.937477 17.3031 1.18708 17.9782C1.44368 18.6767 1.78708 19.2685 2.34368 19.8578C2.90028 20.447 3.45748 20.8089 4.11747 21.0796C4.75347 21.3408 5.48087 21.5189 6.54527 21.5684C7.60967 21.6179 7.95227 21.6294 10.6671 21.6238C13.3819 21.6183 13.7237 21.6056 14.7903 21.5518C15.8569 21.498 16.5795 21.317 17.2151 21.0531C17.8725 20.7798 18.4299 20.4156 18.9841 19.824C19.5383 19.2324 19.8795 18.6395 20.1337 17.9395C20.3801 17.2638 20.5475 16.4909 20.5937 15.3608C20.6403 14.2267 20.6513 13.8646 20.6461 10.9797C20.6409 8.09482 20.6287 7.73314 20.5781 6.60009C20.5275 5.46704 20.3581 4.69758 20.1087 4.02204C19.8517 3.32355 19.5087 2.73217 18.9523 2.14248C18.3959 1.55279 17.8375 1.19048 17.1789 0.921029C16.5425 0.659442 15.8155 0.481154 14.7511 0.432279C13.6867 0.383404 13.3441 0.370867 10.6283 0.376392C7.91247 0.381917 7.57247 0.394242 6.50587 0.449492ZM6.62267 19.6569C5.64767 19.6119 5.11827 19.4398 4.76547 19.2957C4.29827 19.1044 3.96548 18.8732 3.61388 18.5033C3.26228 18.1333 3.04628 17.7784 2.86388 17.2831C2.72688 16.9083 2.56188 16.3464 2.51628 15.3105C2.46668 14.1908 2.45628 13.8546 2.45048 11.018C2.44468 8.1813 2.45488 7.84556 2.50108 6.72547C2.54268 5.69038 2.70568 5.12725 2.84108 4.75262C3.02108 4.25558 3.23788 3.90262 3.58688 3.52925C3.93587 3.15589 4.26887 2.92597 4.73547 2.73217C5.08787 2.58597 5.61667 2.41214 6.59127 2.36284C7.64587 2.30972 7.96187 2.29909 10.6313 2.29293C13.3007 2.28677 13.6175 2.29739 14.6725 2.34669C15.6467 2.39174 16.1769 2.56323 16.5291 2.70794C16.9965 2.89919 17.3291 3.1289 17.6805 3.50036C18.0319 3.8718 18.2485 4.22434 18.4309 4.72117C18.5687 5.09453 18.7323 5.65617 18.7783 6.69232C18.8285 7.81283 18.8399 8.14879 18.8447 10.9848C18.8495 13.8208 18.8401 14.1577 18.7939 15.2773C18.7513 16.3133 18.5897 16.876 18.4539 17.2512C18.2739 17.7474 18.0569 18.1012 17.7077 18.4744C17.3585 18.8475 17.0259 19.0775 16.5591 19.2713C16.2071 19.4172 15.6777 19.5915 14.7039 19.6408C13.6493 19.6935 13.3333 19.7045 10.6629 19.7107C7.99247 19.7169 7.67747 19.7054 6.62287 19.6569M14.7749 5.32148C14.7753 5.57367 14.846 5.82007 14.9782 6.02952C15.1104 6.23896 15.2981 6.40205 15.5176 6.49815C15.737 6.59425 15.9784 6.61905 16.2111 6.56941C16.4438 6.51976 16.6574 6.39791 16.8249 6.21926C16.9925 6.04061 17.1064 5.81318 17.1522 5.56575C17.1981 5.31831 17.1739 5.06198 17.0826 4.82917C16.9914 4.59637 16.8372 4.39754 16.6396 4.25784C16.442 4.11815 16.2098 4.04385 15.9725 4.04435C15.6543 4.04503 15.3494 4.17995 15.1248 4.41945C14.9002 4.65894 14.7743 4.9834 14.7749 5.32148ZM5.51287 11.0107C5.51847 14.024 7.82167 16.4612 10.6571 16.4554C13.4925 16.4497 15.7879 14.0027 15.7825 10.9895C15.7771 7.97624 13.4733 5.53844 10.6375 5.54439C7.80167 5.55034 5.50747 7.99792 5.51287 11.0107ZM7.31407 11.0069C7.31277 10.3064 7.50699 9.62126 7.87219 9.03806C8.23738 8.45485 8.75714 7.99981 9.36574 7.73046C9.97433 7.46112 10.6444 7.38957 11.2913 7.52487C11.9382 7.66017 12.5328 7.99623 12.9999 8.49057C13.467 8.98491 13.7856 9.61532 13.9155 10.3021C14.0454 10.9888 13.9807 11.7011 13.7296 12.3488C13.4786 12.9965 13.0523 13.5505 12.5049 13.9409C11.9574 14.3312 11.3134 14.5403 10.6541 14.5416C10.2163 14.5426 9.78265 14.452 9.37787 14.2748C8.97309 14.0977 8.60511 13.8376 8.29495 13.5094C7.98479 13.1811 7.73853 12.7912 7.57023 12.3618C7.40193 11.9324 7.31489 11.472 7.31407 11.0069Z" fill="white"/>
</g>
<defs>
<clipPath id="clip0_8530_32">
<rect width="20" height="21.25" fill="white" transform="translate(0.647461 0.375)"/>
</clipPath>
</defs>
</svg>
