<svg width="22" height="24" viewBox="0 0 22 24" fill="none" xmlns="http://www.w3.org/2000/svg">
<g clip-path="url(#clip0_8530_36)">
<path d="M19.3052 7.39931C19.318 7.59619 19.318 7.79306 19.318 7.99175C19.318 14.0459 14.9802 21.0281 7.04843 21.0281V21.0245C4.70536 21.0281 2.41096 20.315 0.438477 18.9705C0.779178 19.014 1.12159 19.0358 1.46485 19.0367C3.4066 19.0385 5.29284 18.3463 6.82045 17.0716C4.97519 17.0344 3.35707 15.7561 2.7918 13.8898C3.43819 14.0223 4.10422 13.9951 4.73866 13.8109C2.7269 13.3791 1.27956 11.501 1.27956 9.31998C1.27956 9.30002 1.27956 9.28097 1.27956 9.26191C1.87899 9.61665 2.55014 9.81353 3.23667 9.8353C1.34189 8.48984 0.757831 5.81161 1.90204 3.71766C4.09142 6.58006 7.32168 8.32018 10.7893 8.50435C10.4418 6.91302 10.9166 5.24548 12.0369 4.12683C13.7737 2.39215 16.5053 2.48107 18.1379 4.32552C19.1036 4.1232 20.0293 3.74669 20.8763 3.21322C20.5544 4.27381 19.8807 5.17472 18.9807 5.7472C19.8354 5.64014 20.6705 5.39699 21.457 5.02592C20.878 5.9477 20.1488 6.75062 19.3052 7.39931Z" fill="white"/>
</g>
<defs>
<clipPath id="clip0_8530_36">
<rect width="21.1765" height="22.5" fill="white" transform="translate(0.353027 0.75)"/>
</clipPath>
</defs>
</svg>
